<svg width="18" height="18" viewBox="0 0 18 18" fill="none" xmlns="http://www.w3.org/2000/svg">
<g id="call-outline" clip-path="url(#clip0_92_442)">
<path id="Vector" d="M15.8555 13.1484C15.2972 12.5859 13.9451 11.765 13.2891 11.4342C12.4348 11.0039 12.3645 10.9687 11.693 11.4676C11.2451 11.8005 10.9473 12.0979 10.4231 11.9861C9.89895 11.8743 8.75989 11.244 7.7625 10.2498C6.76512 9.25554 6.09821 8.08343 5.98606 7.56101C5.87391 7.03859 6.17625 6.74433 6.50602 6.29538C6.97078 5.66257 6.93563 5.5571 6.53836 4.70281C6.22864 4.03835 5.38383 2.6989 4.81922 2.14343C4.21524 1.54683 4.21524 1.6523 3.82606 1.81402C3.50922 1.94733 3.20525 2.10937 2.91797 2.29812C2.35547 2.67183 2.04328 2.98226 1.82496 3.44878C1.60664 3.91531 1.50856 5.00902 2.63602 7.05722C3.76348 9.10542 4.55449 10.1527 6.19172 11.7854C7.82895 13.418 9.08789 14.2959 10.9283 15.3281C13.205 16.6032 14.0783 16.3546 14.5463 16.1367C15.0142 15.9187 15.326 15.6093 15.7004 15.0468C15.8897 14.76 16.0521 14.4564 16.1856 14.1398C16.3477 13.752 16.4531 13.752 15.8555 13.1484Z" stroke="black" stroke-width="1.5" stroke-miterlimit="10"/>
</g>
<defs>
<clipPath id="clip0_92_442">
<rect width="18" height="18" fill="white"/>
</clipPath>
</defs>
</svg>
