<svg width="28" height="35" viewBox="0 0 28 35" fill="none" xmlns="http://www.w3.org/2000/svg">
<path id="Vector (Stroke)" fill-rule="evenodd" clip-rule="evenodd" d="M5.25 2C4.52065 2 3.82118 2.28973 3.30546 2.80546C2.78973 3.32118 2.5 4.02065 2.5 4.75V29.75C2.5 30.4793 2.78973 31.1788 3.30546 31.6945C3.82118 32.2103 4.52065 32.5 5.25 32.5H22.75C23.4793 32.5 24.1788 32.2103 24.6945 31.6945C25.2103 31.1788 25.5 30.4793 25.5 29.75V14.5353C25.5 14.5353 25.5 14.5354 25.5 14.5353C25.5 14.5236 25.4999 14.5117 25.4996 14.5H16.5C15.5717 14.5 14.6815 14.1313 14.0251 13.4749C13.3687 12.8185 13 11.9283 13 11V2.00042C12.9883 2.00014 12.9766 2 12.9648 2C12.9648 2 12.9649 2 12.9648 2H5.25ZM15 3.41421L24.0858 12.5H16.5C16.1022 12.5 15.7206 12.342 15.4393 12.0607C15.158 11.7794 15 11.3978 15 11V3.41421ZM1.89124 1.39124C2.78204 0.500445 3.99022 0 5.25 0H12.9648C13.8928 0.00014019 14.7828 0.368769 15.4391 1.02484L26.4751 12.0609C27.1312 12.7171 27.4999 13.6071 27.5 14.535V29.75C27.5 31.0098 26.9996 32.218 26.1088 33.1088C25.218 33.9996 24.0098 34.5 22.75 34.5H5.25C3.99022 34.5 2.78204 33.9996 1.89124 33.1088C1.00045 32.218 0.5 31.0098 0.5 29.75V4.75C0.5 3.49022 1.00045 2.28204 1.89124 1.39124ZM6.75 19.75C6.75 19.1977 7.19772 18.75 7.75 18.75H20.25C20.8023 18.75 21.25 19.1977 21.25 19.75C21.25 20.3023 20.8023 20.75 20.25 20.75H7.75C7.19772 20.75 6.75 20.3023 6.75 19.75ZM6.75 26C6.75 25.4477 7.19772 25 7.75 25H20.25C20.8023 25 21.25 25.4477 21.25 26C21.25 26.5523 20.8023 27 20.25 27H7.75C7.19772 27 6.75 26.5523 6.75 26Z" fill="url(#paint0_linear_337_292)"/>
<defs>
<linearGradient id="paint0_linear_337_292" x1="-3.30081e-07" y1="0.25" x2="27" y2="34.25" gradientUnits="userSpaceOnUse">
<stop stop-color="#FF0018"/>
<stop offset="0.197917" stop-color="#F9C235"/>
<stop offset="0.401042" stop-color="#FFA52C"/>
<stop offset="0.604167" stop-color="#008018"/>
<stop offset="0.796875" stop-color="#0000F9"/>
<stop offset="1" stop-color="#86007D"/>
</linearGradient>
</defs>
</svg>
