<svg width="108" height="108" viewBox="0 0 108 108" fill="none" xmlns="http://www.w3.org/2000/svg">
<g id="game-controller">
<path id="Vector" d="M101.91 51.7598C97.4363 31.533 90.7032 20.7373 80.7153 17.7884C78.6158 17.1725 76.438 16.8649 74.2501 16.875C71.3581 16.875 68.8395 17.5795 66.1754 18.3262C62.9649 19.227 59.3178 20.25 54.0001 20.25C48.6823 20.25 45.0331 19.2291 41.8163 18.3284C39.1501 17.5795 36.6336 16.875 33.7501 16.875C31.4876 16.8672 29.235 17.1738 27.057 17.7862C17.1219 20.7225 10.393 31.5141 5.85358 51.7472C0.972489 73.5202 3.37507 87.267 12.5909 90.4563C13.8542 90.9016 15.1834 91.1312 16.5228 91.1355C22.8362 91.1355 27.8987 85.8769 31.358 81.5716C35.2667 76.699 39.8419 74.2268 54.0001 74.2268C66.6458 74.2268 71.8791 75.9417 76.3995 81.5716C79.2408 85.1112 81.9261 87.5876 84.605 89.1464C88.1677 91.2178 91.7283 91.6777 95.1856 90.4901C100.632 88.6317 103.754 83.719 104.467 75.8848C105.009 69.8773 104.174 61.9861 101.91 51.7598ZM43.8751 50.625H37.1251V57.375C37.1251 58.2701 36.7695 59.1286 36.1365 59.7615C35.5036 60.3944 34.6452 60.75 33.7501 60.75C32.855 60.75 31.9965 60.3944 31.3636 59.7615C30.7306 59.1286 30.3751 58.2701 30.3751 57.375V50.625H23.6251C22.73 50.625 21.8715 50.2694 21.2386 49.6365C20.6056 49.0035 20.2501 48.1451 20.2501 47.25C20.2501 46.3549 20.6056 45.4964 21.2386 44.8635C21.8715 44.2306 22.73 43.875 23.6251 43.875H30.3751V37.125C30.3751 36.2299 30.7306 35.3714 31.3636 34.7385C31.9965 34.1056 32.855 33.75 33.7501 33.75C34.6452 33.75 35.5036 34.1056 36.1365 34.7385C36.7695 35.3714 37.1251 36.2299 37.1251 37.125V43.875H43.8751C44.7702 43.875 45.6286 44.2306 46.2615 44.8635C46.8945 45.4964 47.2501 46.3549 47.2501 47.25C47.2501 48.1451 46.8945 49.0035 46.2615 49.6365C45.6286 50.2694 44.7702 50.625 43.8751 50.625ZM61.5938 51.4687C60.7594 51.4687 59.9438 51.2213 59.25 50.7578C58.5562 50.2942 58.0155 49.6353 57.6962 48.8644C57.3769 48.0936 57.2934 47.2453 57.4561 46.427C57.6189 45.6086 58.0207 44.8569 58.6107 44.2669C59.2007 43.6769 59.9524 43.2751 60.7708 43.1123C61.5891 42.9495 62.4374 43.0331 63.2083 43.3524C63.9791 43.6717 64.638 44.2124 65.1016 44.9062C65.5651 45.6 65.8126 46.4156 65.8126 47.25C65.8126 48.3689 65.3681 49.4419 64.5769 50.2331C63.7858 51.0243 62.7127 51.4687 61.5938 51.4687ZM70.8751 60.75C70.0402 60.75 69.2242 60.5023 68.5302 60.0383C67.8362 59.5742 67.2954 58.9147 66.9764 58.1432C66.6575 57.3718 66.5745 56.523 66.7382 55.7043C66.9018 54.8857 67.3047 54.134 67.8957 53.5444C68.4868 52.9548 69.2395 52.5539 70.0585 52.3923C70.8776 52.2307 71.7262 52.3157 72.4968 52.6367C73.2675 52.9576 73.9257 53.5 74.388 54.1951C74.8503 54.8903 75.0959 55.707 75.0938 56.5418C75.091 57.6588 74.6453 58.7292 73.8544 59.5181C73.0636 60.307 71.9921 60.75 70.8751 60.75ZM70.8751 42.1875C70.0407 42.1875 69.225 41.9401 68.5312 41.4765C67.8375 41.0129 67.2968 40.3541 66.9774 39.5832C66.6581 38.8123 66.5746 37.9641 66.7374 37.1457C66.9002 36.3274 67.302 35.5756 67.892 34.9856C68.482 34.3956 69.2337 33.9938 70.052 33.8311C70.8704 33.6683 71.7186 33.7518 72.4895 34.0711C73.2604 34.3904 73.9193 34.9312 74.3828 35.6249C74.8464 36.3187 75.0938 37.1344 75.0938 37.9687C75.0938 39.0876 74.6493 40.1607 73.8582 40.9519C73.067 41.743 71.9939 42.1875 70.8751 42.1875ZM80.1563 51.4687C79.3219 51.4687 78.5063 51.2213 77.8125 50.7578C77.1187 50.2942 76.578 49.6353 76.2587 48.8644C75.9394 48.0936 75.8558 47.2453 76.0186 46.427C76.1814 45.6086 76.5832 44.8569 77.1732 44.2669C77.7632 43.6769 78.5149 43.2751 79.3333 43.1123C80.1516 42.9495 80.9999 43.0331 81.7708 43.3524C82.5416 43.6717 83.2005 44.2124 83.6641 44.9062C84.1276 45.6 84.3751 46.4156 84.3751 47.25C84.3751 48.3689 83.9306 49.4419 83.1394 50.2331C82.3483 51.0243 81.2752 51.4687 80.1563 51.4687Z" fill="url(#paint0_linear_211_505)"/>
</g>
<defs>
<linearGradient id="paint0_linear_211_505" x1="4.05007" y1="16.2" x2="105.3" y2="16.2" gradientUnits="userSpaceOnUse">
<stop stop-color="#FF0018"/>
<stop offset="0.208333" stop-color="#FFA52C"/>
<stop offset="0.421875" stop-color="#F9C235"/>
<stop offset="0.619792" stop-color="#008018"/>
<stop offset="0.807292" stop-color="#0000F9"/>
<stop offset="1" stop-color="#86007D"/>
</linearGradient>
</defs>
</svg>
